# Blender v2.79 (sub 0) OBJ File: 'cornSingle.blend'
# www.blender.org
mtllib cornSingle.mtl
o Cylinder.001
v 0.001800 0.283353 -0.071555
v -0.313392 0.166598 -0.135655
v 0.001755 0.278844 0.078851
v 0.458326 0.230310 0.002259
v 0.314621 0.160385 -0.135655
v -0.457178 0.088537 -0.002261
v -0.313473 0.158462 0.135654
v 0.314540 0.152249 0.135654
v 0.456834 0.079495 -0.002261
v -0.000607 0.040003 -0.078852
v -0.000652 0.035494 0.071554
v -0.296774 0.292864 -0.045412
v -0.178746 0.242795 -0.123578
v -0.451241 0.212260 -0.073252
v 0.000616 0.163713 -0.143045
v 0.181508 0.239231 -0.123578
v 0.001989 0.302461 0.004288
v 0.300503 0.286955 -0.045412
v 0.300475 0.284000 0.053146
v 0.453346 0.203311 -0.073252
v -0.180287 0.087168 -0.128245
v 0.179969 0.083604 -0.128245
v -0.178822 0.235244 0.128244
v 0.453302 0.198835 0.076016
v 0.181434 0.231680 0.128244
v 0.452434 0.111063 -0.076017
v 0.471120 0.154769 -0.000001
v -0.299327 0.034847 -0.053148
v 0.000531 0.155134 0.143044
v 0.452389 0.106587 0.073251
v 0.297952 0.028938 -0.053148
v -0.299355 0.031892 0.045411
v -0.000841 0.016386 -0.004290
v -0.180360 0.079617 0.123576
v 0.179894 0.076052 0.123576
v 0.297921 0.025983 0.045411
v 0.001752 0.278538 -0.068775
v -0.301194 0.166319 -0.130384
v -0.437959 0.236247 0.002172
v 0.001709 0.274204 0.075787
v 0.440541 0.227556 0.002172
v 0.302419 0.160348 -0.130384
v -0.439393 0.091291 -0.002173
v -0.301271 0.158499 0.130383
v 0.302342 0.152528 0.130383
v 0.439107 0.082600 -0.002173
v -0.000562 0.044643 -0.075788
v -0.000605 0.040309 0.068774
v -0.285221 0.287679 -0.043648
v -0.171779 0.239555 -0.118777
v -0.433687 0.210208 -0.070406
v 0.000614 0.163547 -0.137488
v 0.174478 0.236130 -0.118777
v 0.001934 0.296904 0.004122
v -0.285250 0.284839 0.051081
v 0.288850 0.282000 -0.043648
v 0.288823 0.279160 0.051081
v 0.435754 0.201606 -0.070406
v -0.173260 0.089975 -0.123262
v 0.172999 0.086549 -0.123262
v -0.451691 0.163898 -0.000001
v -0.434565 0.121543 -0.073064
v -0.171851 0.232298 0.123261
v -0.433730 0.205905 0.073063
v 0.435712 0.197304 0.073062
v 0.174407 0.228872 0.123261
v 0.434878 0.112942 -0.073064
v 0.452838 0.154949 -0.000001
v -0.287675 0.039687 -0.051083
v -0.434606 0.117241 0.070405
v 0.000533 0.155300 0.137486
v 0.434834 0.108640 0.070405
v 0.286398 0.034008 -0.051083
v -0.287703 0.036847 0.043646
v -0.000786 0.021943 -0.004123
v -0.173331 0.082717 0.118775
v 0.172927 0.079292 0.118775
v 0.286368 0.031168 0.043646
vt 0.503507 0.519383
vt 0.522318 0.572498
vt 0.509854 0.611077
vt 0.536299 0.611976
vt 0.525788 0.516124
vt 0.527393 0.532714
vt 0.534975 0.624661
vt 0.517072 0.534224
vt 0.512690 0.441809
vt 0.487672 0.429077
vt 0.508939 0.462723
vt 0.517695 0.608971
vt 0.506092 0.514100
vt 0.526941 0.566446
vt 0.494125 0.395177
vt 0.496722 0.444144
vt 0.479656 0.398762
vt 0.494568 0.419217
vt 0.481437 0.378609
vt 0.498180 0.376160
vt 0.519615 0.541561
vt 0.517896 0.601195
vt 0.503675 0.484509
vt 0.499392 0.399357
vt 0.486658 0.411852
vt 0.502867 0.424285
vt 0.513675 0.457595
vt 0.520808 0.646576
vt 0.503173 0.602879
vt 0.517637 0.600763
vt 0.520579 0.421313
vt 0.532650 0.511303
vt 0.516775 0.460990
vt 0.488827 0.384171
vt 0.502601 0.383534
vt 0.496739 0.429290
vt 0.489584 0.517602
vt 0.482274 0.431406
vt 0.498683 0.516271
vt 0.511657 0.514373
vt 0.529380 0.564416
vt 0.542553 0.601610
vt 0.519020 0.420367
vt 0.528545 0.510816
vt 0.480695 0.386737
vt 0.490909 0.442348
vt 0.506342 0.449214
vt 0.510969 0.382310
vt 0.495546 0.545081
vt 0.483193 0.443368
vt 0.507985 0.646781
vt 0.541015 0.600834
vt 0.519076 0.436719
vt 0.514824 0.406223
vt 0.487064 0.397212
vt 0.509404 0.444601
vt 0.493895 0.380511
vt 0.512976 0.420610
vt 0.503839 0.395225
vt 0.503026 0.536278
vt 0.527489 0.656153
vt 0.685057 0.077962
vt 0.577107 0.119564
vt 0.506083 0.061680
vt 0.496873 0.150484
vt 0.685057 0.154435
vt 0.652547 0.153027
vt 0.472735 0.140807
vt 0.652547 0.117603
vt 0.832359 0.140807
vt 0.864031 0.061680
vt 0.793007 0.119564
vt 0.507936 0.088987
vt 0.694536 0.088849
vt 0.587494 0.137642
vt 0.918148 0.113413
vt 0.900519 0.162630
vt 0.868996 0.114886
vt 0.637651 0.123165
vt 0.447409 0.128581
vt 0.522904 0.092860
vt 0.927712 0.097370
vt 0.832359 0.086005
vt 0.924875 0.047109
vt 0.881135 0.088987
vt 0.963313 0.061395
vt 0.963313 0.118859
vt 0.425758 0.118859
vt 0.897602 0.065339
vt 0.752397 0.092860
vt 0.918148 0.113412
vt 0.897602 0.065339
vt 0.868996 0.114886
vt 0.801577 0.137642
vt 0.434392 0.084030
vt 0.523812 0.042522
vt 0.523812 0.092165
vt 0.515135 0.175832
vt 0.437053 0.130738
vt 0.590728 0.146700
vt 0.869734 0.175832
vt 0.692434 0.179554
vt 0.794141 0.146700
vt 0.950477 0.084030
vt 0.947816 0.130738
vt 0.861057 0.092165
vt 0.692434 0.031747
vt 0.861057 0.042522
vt 0.692434 0.062976
vt 0.692434 0.107505
vt 0.872003 0.170964
vt 0.694536 0.165911
vt 0.947816 0.055554
vt 0.837473 0.067141
vt 0.819844 0.116359
vt 0.947816 0.159456
vt 0.637651 0.040555
vt 0.837682 0.040703
vt 0.437620 0.040703
vt 0.437053 0.159456
vt 0.837473 0.067141
vt 0.819844 0.116359
vt 0.437053 0.055554
vt 0.517068 0.170964
vt 0.840390 0.164432
vt 0.900519 0.162630
vt 0.925775 0.072726
vt 0.827893 0.128581
vt 0.349526 0.072726
vt 0.472735 0.086005
vt 0.377382 0.097370
vt 0.380219 0.047109
vt 0.840390 0.164432
vt 0.413997 0.102622
vt 0.413997 0.133102
vt 0.956117 0.102622
vt 0.873241 0.150484
vt 0.924875 0.130107
vt 0.652547 0.069396
vt 0.380219 0.130107
vn 0.0088 0.8936 -0.4487
vn -0.0548 0.5510 -0.8327
vn -0.1543 0.7292 -0.6666
vn -0.1552 0.3632 -0.9187
vn 0.0003 0.0300 -0.9995
vn 0.0134 0.9983 -0.0574
vn 0.2104 0.9119 -0.3524
vn 0.0657 0.5498 -0.8327
vn -0.0296 -0.4885 -0.8720
vn 0.7497 0.6614 0.0201
vn 0.2102 0.8891 0.4065
vn 0.6930 0.3708 0.6182
vn 0.2221 0.0270 -0.9746
vn 0.6934 0.4072 -0.5945
vn 0.6855 -0.3844 -0.6182
vn 0.0115 0.8325 0.5538
vn -0.0154 0.2189 0.9756
vn 0.0652 0.4989 0.8641
vn 0.9999 -0.0099 0.0000
vn 0.0554 -0.5001 -0.8641
vn -0.3301 -0.9435 -0.0284
vn -0.1556 -0.9763 -0.1499
vn -0.1556 -0.9836 0.0911
vn 0.2215 -0.0314 0.9746
vn -0.0003 -0.0300 0.9995
vn 0.0548 -0.5510 0.8327
vn 0.7365 -0.6761 -0.0201
vn 0.6852 -0.4208 0.5945
vn 0.1924 -0.9159 0.3524
vn -0.0085 -0.8651 -0.5014
vn 0.1926 -0.8931 -0.4065
vn -0.0099 -0.9995 -0.0300
vn -0.0088 -0.8936 0.4487
vn -0.0301 -0.5399 0.8412
vn -0.0238 -0.0297 0.9993
vn -0.2102 0.5828 -0.7849
vn -0.1924 0.9159 -0.3524
vn -0.2215 0.0314 -0.9746
vn 0.0099 0.9995 0.0300
vn -0.0652 -0.4989 -0.8641
vn -0.7365 0.6761 0.0201
vn -0.6852 0.4208 -0.5945
vn -0.9999 0.0099 0.0000
vn 0.0085 0.8651 0.5014
vn -0.1926 0.8931 0.4065
vn -0.0554 0.5001 0.8641
vn -0.6930 -0.3708 -0.6182
vn -0.6855 0.3844 0.6182
vn -0.7497 -0.6614 -0.0201
vn -0.2102 -0.8891 -0.4065
vn -0.2104 -0.9119 0.3524
vn -0.2221 -0.0270 0.9746
vn -0.6934 -0.4072 0.5945
vn -0.0657 -0.5498 0.8327
usemtl leaf
s 1
f 1/1/1 13/2/2 12/3/3
f 2/4/4 13/2/2 15/5/5
f 1/6/1 12/7/3 17/8/6
f 1/6/1 17/8/6 18/9/7
f 1/1/1 18/10/7 16/11/8
f 2/12/4 15/13/5 21/14/9
f 4/15/10 19/16/11 24/17/12
f 5/18/13 20/19/14 26/20/15
f 3/21/16 23/22/17 25/23/18
f 4/24/10 24/25/12 27/26/19
f 5/18/13 26/20/15 22/27/20
f 6/28/21 28/29/22 32/30/23
f 8/31/24 29/32/25 35/33/26
f 9/34/27 30/35/28 36/36/29
f 10/37/30 31/38/31 33/39/32
f 33/39/32 36/36/29 11/40/33
f 33/39/32 31/38/31 36/36/29
f 31/38/31 9/34/27 36/36/29
f 36/36/29 35/33/26 11/40/33
f 36/36/29 30/35/28 35/33/26
f 30/35/28 8/31/24 35/33/26
f 35/33/26 34/41/34 11/40/33
f 35/33/26 29/32/25 34/41/34
f 29/32/25 7/42/35 34/41/34
f 34/41/34 32/30/23 11/40/33
f 32/30/23 33/39/32 11/40/33
f 32/30/23 28/29/22 33/39/32
f 28/29/22 10/37/30 33/39/32
f 22/27/20 31/43/31 10/44/30
f 22/27/20 26/20/15 31/43/31
f 26/45/15 9/34/27 31/38/31
f 27/26/19 30/46/28 9/47/27
f 27/26/19 24/25/12 30/46/28
f 24/48/12 8/31/24 30/35/28
f 25/23/18 29/49/25 8/50/24
f 25/23/18 23/22/17 29/49/25
f 23/22/17 7/51/35 29/49/25
f 21/14/9 10/44/30 28/52/22
f 26/53/15 27/26/19 9/47/27
f 26/53/15 20/54/14 27/26/19
f 20/54/14 4/24/10 27/26/19
f 24/55/12 25/23/18 8/50/24
f 24/55/12 19/56/11 25/23/18
f 19/56/11 3/21/16 25/23/18
f 21/14/9 22/27/20 10/44/30
f 21/14/9 15/13/5 22/27/20
f 15/13/5 5/18/13 22/27/20
f 16/11/8 20/57/14 5/58/13
f 16/11/8 18/10/7 20/57/14
f 18/9/7 4/15/10 20/59/14
f 18/9/7 19/16/11 4/15/10
f 18/9/7 17/8/6 19/16/11
f 17/8/6 3/60/16 19/16/11
f 15/5/5 16/11/8 5/58/13
f 15/5/5 13/2/2 16/11/8
f 13/2/2 1/1/1 16/11/8
f 12/3/3 13/2/2 14/61/36
f 13/2/2 2/4/4 14/61/36
f 37/62/1 50/63/2 49/64/37
f 38/65/38 50/63/2 52/66/5
f 37/67/1 49/68/37 54/69/39
f 37/67/1 54/69/39 56/70/7
f 37/62/1 56/71/7 53/72/8
f 38/73/38 52/74/5 59/75/40
f 39/76/41 51/77/42 61/78/43
f 40/79/44 55/80/45 63/81/46
f 41/82/10 57/83/11 65/84/12
f 42/85/13 58/86/14 67/87/15
f 38/73/38 59/75/40 62/88/47
f 39/76/41 61/78/43 64/89/48
f 40/79/44 63/81/46 66/90/18
f 41/91/10 65/92/12 68/93/19
f 42/85/13 67/87/15 60/94/20
f 43/95/49 69/96/50 74/97/51
f 44/98/52 70/99/53 76/100/54
f 45/101/24 71/102/25 77/103/26
f 46/104/27 72/105/28 78/106/29
f 47/107/30 73/108/31 75/109/32
f 75/109/32 78/106/29 48/110/33
f 75/109/32 73/108/31 78/106/29
f 73/108/31 46/104/27 78/106/29
f 78/106/29 77/103/26 48/110/33
f 78/106/29 72/105/28 77/103/26
f 72/105/28 45/101/24 77/103/26
f 77/103/26 76/100/54 48/110/33
f 77/103/26 71/102/25 76/100/54
f 71/102/25 44/98/52 76/100/54
f 76/100/54 74/97/51 48/110/33
f 76/100/54 70/99/53 74/97/51
f 70/99/53 43/95/49 74/97/51
f 74/97/51 75/109/32 48/110/33
f 74/97/51 69/96/50 75/109/32
f 69/96/50 47/107/30 75/109/32
f 60/94/20 73/111/31 47/112/30
f 60/94/20 67/87/15 73/111/31
f 67/113/15 46/104/27 73/108/31
f 68/93/19 72/114/28 46/115/27
f 68/93/19 65/92/12 72/114/28
f 65/116/12 45/101/24 72/105/28
f 66/90/18 71/117/25 45/118/24
f 66/90/18 63/81/46 71/117/25
f 63/81/46 44/119/52 71/117/25
f 64/120/48 70/99/53 44/98/52
f 64/89/48 61/78/43 70/121/53
f 61/78/43 43/122/49 70/121/53
f 62/123/47 69/96/50 43/95/49
f 62/88/47 59/75/40 69/124/50
f 59/75/40 47/112/30 69/124/50
f 67/125/15 68/93/19 46/115/27
f 67/125/15 58/126/14 68/93/19
f 58/126/14 41/91/10 68/93/19
f 65/127/12 66/90/18 45/118/24
f 65/127/12 57/128/11 66/90/18
f 57/128/11 40/79/44 66/90/18
f 63/81/46 64/129/48 44/119/52
f 63/81/46 55/80/45 64/129/48
f 55/130/45 39/131/41 64/132/48
f 61/78/43 62/133/47 43/122/49
f 61/78/43 51/77/42 62/133/47
f 51/134/42 38/65/38 62/135/47
f 59/75/40 60/94/20 47/112/30
f 59/75/40 52/74/5 60/94/20
f 52/74/5 42/85/13 60/94/20
f 53/72/8 58/136/14 42/137/13
f 53/72/8 56/71/7 58/136/14
f 56/70/7 41/82/10 58/138/14
f 56/70/7 57/83/11 41/82/10
f 56/70/7 54/69/39 57/83/11
f 54/69/39 40/139/44 57/83/11
f 54/69/39 55/130/45 40/139/44
f 54/69/39 49/68/37 55/130/45
f 49/68/37 39/131/41 55/130/45
f 52/66/5 53/72/8 42/137/13
f 52/66/5 50/63/2 53/72/8
f 50/63/2 37/62/1 53/72/8
f 49/68/37 51/140/42 39/131/41
f 49/64/37 50/63/2 51/134/42
f 50/63/2 38/65/38 51/134/42
